<mxfile host="Electron" agent="Mozilla/5.0 (Windows NT 10.0; Win64; x64) AppleWebKit/537.36 (KHTML, like Gecko) draw.io/25.0.2 Chrome/128.0.6613.186 Electron/32.2.5 Safari/537.36" version="25.0.2">
  <diagram id="C5RBs43oDa-KdzZeNtuy" name="Page-1">
    <mxGraphModel dx="2147" dy="1809" grid="1" gridSize="10" guides="1" tooltips="1" connect="1" arrows="1" fold="1" page="1" pageScale="1" pageWidth="827" pageHeight="1169" math="0" shadow="0">
      <root>
        <mxCell id="WIyWlLk6GJQsqaUBKTNV-0" />
        <mxCell id="WIyWlLk6GJQsqaUBKTNV-1" parent="WIyWlLk6GJQsqaUBKTNV-0" />
        <mxCell id="wI4dhS7EkpP3msXCNBsh-2" style="edgeStyle=orthogonalEdgeStyle;rounded=0;orthogonalLoop=1;jettySize=auto;html=1;" edge="1" parent="WIyWlLk6GJQsqaUBKTNV-1" source="wI4dhS7EkpP3msXCNBsh-14" target="wI4dhS7EkpP3msXCNBsh-5">
          <mxGeometry relative="1" as="geometry" />
        </mxCell>
        <mxCell id="wI4dhS7EkpP3msXCNBsh-0" value="Начало" style="strokeWidth=2;html=1;shape=mxgraph.flowchart.terminator;whiteSpace=wrap;" vertex="1" parent="WIyWlLk6GJQsqaUBKTNV-1">
          <mxGeometry x="280" y="40" width="80" height="40" as="geometry" />
        </mxCell>
        <mxCell id="wI4dhS7EkpP3msXCNBsh-4" style="edgeStyle=orthogonalEdgeStyle;rounded=0;orthogonalLoop=1;jettySize=auto;html=1;" edge="1" parent="WIyWlLk6GJQsqaUBKTNV-1" source="wI4dhS7EkpP3msXCNBsh-1" target="wI4dhS7EkpP3msXCNBsh-3">
          <mxGeometry relative="1" as="geometry" />
        </mxCell>
        <mxCell id="wI4dhS7EkpP3msXCNBsh-1" value="Ввод логина&amp;nbsp;&lt;div&gt;и пароля&lt;/div&gt;" style="shape=parallelogram;html=1;strokeWidth=2;perimeter=parallelogramPerimeter;whiteSpace=wrap;rounded=1;arcSize=12;size=0.23;" vertex="1" parent="WIyWlLk6GJQsqaUBKTNV-1">
          <mxGeometry x="-70" y="415.5" width="140" height="60" as="geometry" />
        </mxCell>
        <mxCell id="wI4dhS7EkpP3msXCNBsh-21" style="edgeStyle=orthogonalEdgeStyle;rounded=0;orthogonalLoop=1;jettySize=auto;html=1;" edge="1" parent="WIyWlLk6GJQsqaUBKTNV-1" source="wI4dhS7EkpP3msXCNBsh-3" target="wI4dhS7EkpP3msXCNBsh-20">
          <mxGeometry relative="1" as="geometry" />
        </mxCell>
        <mxCell id="wI4dhS7EkpP3msXCNBsh-3" value="Отправка запроса на авторизацию" style="rounded=1;whiteSpace=wrap;html=1;absoluteArcSize=1;arcSize=14;strokeWidth=2;" vertex="1" parent="WIyWlLk6GJQsqaUBKTNV-1">
          <mxGeometry x="-60" y="520.5" width="120" height="50" as="geometry" />
        </mxCell>
        <mxCell id="wI4dhS7EkpP3msXCNBsh-6" style="edgeStyle=orthogonalEdgeStyle;rounded=0;orthogonalLoop=1;jettySize=auto;html=1;" edge="1" parent="WIyWlLk6GJQsqaUBKTNV-1" source="wI4dhS7EkpP3msXCNBsh-5" target="wI4dhS7EkpP3msXCNBsh-1">
          <mxGeometry relative="1" as="geometry" />
        </mxCell>
        <mxCell id="wI4dhS7EkpP3msXCNBsh-12" style="edgeStyle=orthogonalEdgeStyle;rounded=0;orthogonalLoop=1;jettySize=auto;html=1;" edge="1" parent="WIyWlLk6GJQsqaUBKTNV-1" source="wI4dhS7EkpP3msXCNBsh-17" target="wI4dhS7EkpP3msXCNBsh-10">
          <mxGeometry relative="1" as="geometry">
            <Array as="points">
              <mxPoint x="799.91" y="380" />
              <mxPoint x="799.91" y="380" />
            </Array>
          </mxGeometry>
        </mxCell>
        <mxCell id="wI4dhS7EkpP3msXCNBsh-5" value="Пользователь решил зарегистрироваться" style="strokeWidth=2;html=1;shape=mxgraph.flowchart.decision;whiteSpace=wrap;" vertex="1" parent="WIyWlLk6GJQsqaUBKTNV-1">
          <mxGeometry x="240" y="200" width="160" height="100" as="geometry" />
        </mxCell>
        <mxCell id="wI4dhS7EkpP3msXCNBsh-8" value="Нет" style="text;html=1;align=center;verticalAlign=middle;resizable=0;points=[];autosize=1;strokeColor=none;fillColor=none;" vertex="1" parent="WIyWlLk6GJQsqaUBKTNV-1">
          <mxGeometry x="200" y="220" width="40" height="30" as="geometry" />
        </mxCell>
        <mxCell id="wI4dhS7EkpP3msXCNBsh-9" style="edgeStyle=orthogonalEdgeStyle;rounded=0;orthogonalLoop=1;jettySize=auto;html=1;" edge="1" source="wI4dhS7EkpP3msXCNBsh-10" target="wI4dhS7EkpP3msXCNBsh-11" parent="WIyWlLk6GJQsqaUBKTNV-1">
          <mxGeometry relative="1" as="geometry" />
        </mxCell>
        <mxCell id="wI4dhS7EkpP3msXCNBsh-10" value="Ввод логина,&amp;nbsp;&lt;div&gt;&lt;span style=&quot;background-color: initial;&quot;&gt;пароля и ключа администратора&amp;nbsp;&lt;/span&gt;&lt;/div&gt;" style="shape=parallelogram;html=1;strokeWidth=2;perimeter=parallelogramPerimeter;whiteSpace=wrap;rounded=1;arcSize=12;size=0.23;" vertex="1" parent="WIyWlLk6GJQsqaUBKTNV-1">
          <mxGeometry x="729.91" y="425" width="140" height="60" as="geometry" />
        </mxCell>
        <mxCell id="wI4dhS7EkpP3msXCNBsh-23" style="edgeStyle=orthogonalEdgeStyle;rounded=0;orthogonalLoop=1;jettySize=auto;html=1;" edge="1" parent="WIyWlLk6GJQsqaUBKTNV-1" source="wI4dhS7EkpP3msXCNBsh-11" target="wI4dhS7EkpP3msXCNBsh-22">
          <mxGeometry relative="1" as="geometry" />
        </mxCell>
        <mxCell id="wI4dhS7EkpP3msXCNBsh-11" value="Отправка запроса на регистрацию" style="rounded=1;whiteSpace=wrap;html=1;absoluteArcSize=1;arcSize=14;strokeWidth=2;" vertex="1" parent="WIyWlLk6GJQsqaUBKTNV-1">
          <mxGeometry x="739.91" y="530" width="120" height="50" as="geometry" />
        </mxCell>
        <mxCell id="wI4dhS7EkpP3msXCNBsh-13" value="Да" style="text;html=1;align=center;verticalAlign=middle;resizable=0;points=[];autosize=1;strokeColor=none;fillColor=none;" vertex="1" parent="WIyWlLk6GJQsqaUBKTNV-1">
          <mxGeometry x="394" y="220" width="40" height="30" as="geometry" />
        </mxCell>
        <mxCell id="wI4dhS7EkpP3msXCNBsh-15" value="" style="edgeStyle=orthogonalEdgeStyle;rounded=0;orthogonalLoop=1;jettySize=auto;html=1;" edge="1" parent="WIyWlLk6GJQsqaUBKTNV-1" source="wI4dhS7EkpP3msXCNBsh-0" target="wI4dhS7EkpP3msXCNBsh-14">
          <mxGeometry relative="1" as="geometry">
            <mxPoint x="320" y="80" as="sourcePoint" />
            <mxPoint x="320" y="200" as="targetPoint" />
          </mxGeometry>
        </mxCell>
        <mxCell id="wI4dhS7EkpP3msXCNBsh-14" value="Вывод панели авторизации" style="rounded=1;whiteSpace=wrap;html=1;absoluteArcSize=1;arcSize=14;strokeWidth=2;" vertex="1" parent="WIyWlLk6GJQsqaUBKTNV-1">
          <mxGeometry x="260" y="110" width="120" height="50" as="geometry" />
        </mxCell>
        <mxCell id="wI4dhS7EkpP3msXCNBsh-18" value="" style="edgeStyle=orthogonalEdgeStyle;rounded=0;orthogonalLoop=1;jettySize=auto;html=1;" edge="1" parent="WIyWlLk6GJQsqaUBKTNV-1" source="wI4dhS7EkpP3msXCNBsh-5" target="wI4dhS7EkpP3msXCNBsh-17">
          <mxGeometry relative="1" as="geometry">
            <mxPoint x="400" y="250" as="sourcePoint" />
            <mxPoint x="470" y="425" as="targetPoint" />
            <Array as="points" />
          </mxGeometry>
        </mxCell>
        <mxCell id="wI4dhS7EkpP3msXCNBsh-17" value="Вывод панели регистрации" style="rounded=1;whiteSpace=wrap;html=1;absoluteArcSize=1;arcSize=14;strokeWidth=2;" vertex="1" parent="WIyWlLk6GJQsqaUBKTNV-1">
          <mxGeometry x="739.91" y="320" width="120" height="50" as="geometry" />
        </mxCell>
        <mxCell id="wI4dhS7EkpP3msXCNBsh-32" style="edgeStyle=orthogonalEdgeStyle;rounded=0;orthogonalLoop=1;jettySize=auto;html=1;" edge="1" parent="WIyWlLk6GJQsqaUBKTNV-1" source="wI4dhS7EkpP3msXCNBsh-20" target="wI4dhS7EkpP3msXCNBsh-29">
          <mxGeometry relative="1" as="geometry">
            <Array as="points">
              <mxPoint x="-140" y="660.5" />
            </Array>
          </mxGeometry>
        </mxCell>
        <mxCell id="wI4dhS7EkpP3msXCNBsh-20" value="&lt;font style=&quot;font-size: 11px;&quot;&gt;Пользователь существует&lt;/font&gt;" style="strokeWidth=2;html=1;shape=mxgraph.flowchart.decision;whiteSpace=wrap;" vertex="1" parent="WIyWlLk6GJQsqaUBKTNV-1">
          <mxGeometry x="-80" y="610.5" width="160" height="100" as="geometry" />
        </mxCell>
        <mxCell id="wI4dhS7EkpP3msXCNBsh-25" style="edgeStyle=orthogonalEdgeStyle;rounded=0;orthogonalLoop=1;jettySize=auto;html=1;" edge="1" parent="WIyWlLk6GJQsqaUBKTNV-1" source="wI4dhS7EkpP3msXCNBsh-22" target="wI4dhS7EkpP3msXCNBsh-24">
          <mxGeometry relative="1" as="geometry">
            <Array as="points">
              <mxPoint x="679.91" y="670" />
            </Array>
          </mxGeometry>
        </mxCell>
        <mxCell id="wI4dhS7EkpP3msXCNBsh-31" style="edgeStyle=orthogonalEdgeStyle;rounded=0;orthogonalLoop=1;jettySize=auto;html=1;" edge="1" parent="WIyWlLk6GJQsqaUBKTNV-1" source="wI4dhS7EkpP3msXCNBsh-22" target="wI4dhS7EkpP3msXCNBsh-30">
          <mxGeometry relative="1" as="geometry">
            <mxPoint x="560.000909090909" y="1320" as="targetPoint" />
            <Array as="points">
              <mxPoint x="910" y="670" />
              <mxPoint x="910" y="1000" />
              <mxPoint x="800" y="1000" />
              <mxPoint x="800" y="1260" />
              <mxPoint x="320" y="1260" />
            </Array>
          </mxGeometry>
        </mxCell>
        <mxCell id="wI4dhS7EkpP3msXCNBsh-22" value="Данные введены&amp;nbsp;&lt;div&gt;корректно?&lt;/div&gt;" style="strokeWidth=2;html=1;shape=mxgraph.flowchart.decision;whiteSpace=wrap;" vertex="1" parent="WIyWlLk6GJQsqaUBKTNV-1">
          <mxGeometry x="719.91" y="620" width="160" height="100" as="geometry" />
        </mxCell>
        <mxCell id="wI4dhS7EkpP3msXCNBsh-28" style="edgeStyle=orthogonalEdgeStyle;rounded=0;orthogonalLoop=1;jettySize=auto;html=1;endArrow=none;endFill=0;" edge="1" parent="WIyWlLk6GJQsqaUBKTNV-1" source="wI4dhS7EkpP3msXCNBsh-24">
          <mxGeometry relative="1" as="geometry">
            <mxPoint x="799.91" y="1130" as="targetPoint" />
            <Array as="points">
              <mxPoint x="679.91" y="1000" />
              <mxPoint x="799.91" y="1000" />
              <mxPoint x="799.91" y="1080" />
            </Array>
          </mxGeometry>
        </mxCell>
        <mxCell id="wI4dhS7EkpP3msXCNBsh-24" value="Вывод ошибки" style="shape=parallelogram;html=1;strokeWidth=2;perimeter=parallelogramPerimeter;whiteSpace=wrap;rounded=1;arcSize=12;size=0.23;" vertex="1" parent="WIyWlLk6GJQsqaUBKTNV-1">
          <mxGeometry x="609.91" y="830" width="140" height="60" as="geometry" />
        </mxCell>
        <mxCell id="wI4dhS7EkpP3msXCNBsh-26" value="Нет" style="text;html=1;align=center;verticalAlign=middle;resizable=0;points=[];autosize=1;strokeColor=none;fillColor=none;" vertex="1" parent="WIyWlLk6GJQsqaUBKTNV-1">
          <mxGeometry x="673.91" y="638" width="40" height="30" as="geometry" />
        </mxCell>
        <mxCell id="wI4dhS7EkpP3msXCNBsh-27" value="Да" style="text;html=1;align=center;verticalAlign=middle;resizable=0;points=[];autosize=1;strokeColor=none;fillColor=none;" vertex="1" parent="WIyWlLk6GJQsqaUBKTNV-1">
          <mxGeometry x="879.91" y="638" width="40" height="30" as="geometry" />
        </mxCell>
        <mxCell id="wI4dhS7EkpP3msXCNBsh-35" style="edgeStyle=orthogonalEdgeStyle;rounded=0;orthogonalLoop=1;jettySize=auto;html=1;" edge="1" parent="WIyWlLk6GJQsqaUBKTNV-1" source="wI4dhS7EkpP3msXCNBsh-29" target="wI4dhS7EkpP3msXCNBsh-30">
          <mxGeometry relative="1" as="geometry">
            <Array as="points">
              <mxPoint x="-140" y="1170" />
              <mxPoint x="-10" y="1170" />
              <mxPoint x="-10" y="1260" />
              <mxPoint x="320" y="1260" />
            </Array>
          </mxGeometry>
        </mxCell>
        <mxCell id="wI4dhS7EkpP3msXCNBsh-29" value="Вывод ошибки" style="shape=parallelogram;html=1;strokeWidth=2;perimeter=parallelogramPerimeter;whiteSpace=wrap;rounded=1;arcSize=12;size=0.23;" vertex="1" parent="WIyWlLk6GJQsqaUBKTNV-1">
          <mxGeometry x="-210" y="820.5" width="140" height="60" as="geometry" />
        </mxCell>
        <mxCell id="wI4dhS7EkpP3msXCNBsh-30" value="Конец" style="strokeWidth=2;html=1;shape=mxgraph.flowchart.terminator;whiteSpace=wrap;" vertex="1" parent="WIyWlLk6GJQsqaUBKTNV-1">
          <mxGeometry x="280" y="1320" width="80" height="40" as="geometry" />
        </mxCell>
        <mxCell id="wI4dhS7EkpP3msXCNBsh-33" value="Нет" style="text;html=1;align=center;verticalAlign=middle;resizable=0;points=[];autosize=1;strokeColor=none;fillColor=none;" vertex="1" parent="WIyWlLk6GJQsqaUBKTNV-1">
          <mxGeometry x="-130" y="628.5" width="40" height="30" as="geometry" />
        </mxCell>
        <mxCell id="wI4dhS7EkpP3msXCNBsh-38" value="" style="edgeStyle=orthogonalEdgeStyle;rounded=0;orthogonalLoop=1;jettySize=auto;html=1;" edge="1" parent="WIyWlLk6GJQsqaUBKTNV-1" source="wI4dhS7EkpP3msXCNBsh-41" target="wI4dhS7EkpP3msXCNBsh-37">
          <mxGeometry relative="1" as="geometry">
            <mxPoint x="160" y="1310.5" as="targetPoint" />
            <mxPoint x="80" y="660.5" as="sourcePoint" />
            <Array as="points" />
          </mxGeometry>
        </mxCell>
        <mxCell id="wI4dhS7EkpP3msXCNBsh-45" style="edgeStyle=orthogonalEdgeStyle;rounded=0;orthogonalLoop=1;jettySize=auto;html=1;" edge="1" parent="WIyWlLk6GJQsqaUBKTNV-1" source="wI4dhS7EkpP3msXCNBsh-37" target="wI4dhS7EkpP3msXCNBsh-44">
          <mxGeometry relative="1" as="geometry">
            <Array as="points">
              <mxPoint x="120" y="1005" />
            </Array>
          </mxGeometry>
        </mxCell>
        <mxCell id="wI4dhS7EkpP3msXCNBsh-49" style="edgeStyle=orthogonalEdgeStyle;rounded=0;orthogonalLoop=1;jettySize=auto;html=1;" edge="1" parent="WIyWlLk6GJQsqaUBKTNV-1" source="wI4dhS7EkpP3msXCNBsh-37" target="wI4dhS7EkpP3msXCNBsh-48">
          <mxGeometry relative="1" as="geometry">
            <Array as="points">
              <mxPoint x="120" y="1095" />
            </Array>
          </mxGeometry>
        </mxCell>
        <mxCell id="wI4dhS7EkpP3msXCNBsh-37" value="&lt;font style=&quot;font-size: 11px;&quot;&gt;Роль пользователя&lt;/font&gt;" style="strokeWidth=2;html=1;shape=mxgraph.flowchart.decision;whiteSpace=wrap;" vertex="1" parent="WIyWlLk6GJQsqaUBKTNV-1">
          <mxGeometry x="40" y="800.5" width="160" height="100" as="geometry" />
        </mxCell>
        <mxCell id="wI4dhS7EkpP3msXCNBsh-39" value="Да" style="text;html=1;align=center;verticalAlign=middle;resizable=0;points=[];autosize=1;strokeColor=none;fillColor=none;" vertex="1" parent="WIyWlLk6GJQsqaUBKTNV-1">
          <mxGeometry x="70" y="628.5" width="40" height="30" as="geometry" />
        </mxCell>
        <mxCell id="wI4dhS7EkpP3msXCNBsh-43" value="" style="edgeStyle=orthogonalEdgeStyle;rounded=0;orthogonalLoop=1;jettySize=auto;html=1;" edge="1" parent="WIyWlLk6GJQsqaUBKTNV-1" source="wI4dhS7EkpP3msXCNBsh-20" target="wI4dhS7EkpP3msXCNBsh-41">
          <mxGeometry relative="1" as="geometry">
            <mxPoint x="120" y="791" as="targetPoint" />
            <mxPoint x="80" y="660" as="sourcePoint" />
            <Array as="points">
              <mxPoint x="100" y="661" />
              <mxPoint x="120" y="660" />
            </Array>
          </mxGeometry>
        </mxCell>
        <mxCell id="wI4dhS7EkpP3msXCNBsh-41" value="Проверка прав пользователя" style="rounded=1;whiteSpace=wrap;html=1;absoluteArcSize=1;arcSize=14;strokeWidth=2;" vertex="1" parent="WIyWlLk6GJQsqaUBKTNV-1">
          <mxGeometry x="60" y="710.5" width="120" height="50" as="geometry" />
        </mxCell>
        <mxCell id="wI4dhS7EkpP3msXCNBsh-47" style="edgeStyle=orthogonalEdgeStyle;rounded=0;orthogonalLoop=1;jettySize=auto;html=1;" edge="1" parent="WIyWlLk6GJQsqaUBKTNV-1" source="wI4dhS7EkpP3msXCNBsh-44" target="wI4dhS7EkpP3msXCNBsh-30">
          <mxGeometry relative="1" as="geometry">
            <Array as="points">
              <mxPoint x="520" y="1005" />
              <mxPoint x="520" y="1170" />
              <mxPoint x="-10" y="1170" />
              <mxPoint x="-10" y="1260" />
              <mxPoint x="320" y="1260" />
            </Array>
          </mxGeometry>
        </mxCell>
        <mxCell id="wI4dhS7EkpP3msXCNBsh-44" value="Отобразить главный экран" style="rounded=1;whiteSpace=wrap;html=1;absoluteArcSize=1;arcSize=14;strokeWidth=2;" vertex="1" parent="WIyWlLk6GJQsqaUBKTNV-1">
          <mxGeometry x="190" y="980" width="120" height="50" as="geometry" />
        </mxCell>
        <mxCell id="wI4dhS7EkpP3msXCNBsh-46" value="User" style="text;html=1;align=center;verticalAlign=middle;resizable=0;points=[];autosize=1;strokeColor=none;fillColor=none;" vertex="1" parent="WIyWlLk6GJQsqaUBKTNV-1">
          <mxGeometry x="130" y="980" width="50" height="30" as="geometry" />
        </mxCell>
        <mxCell id="wI4dhS7EkpP3msXCNBsh-50" style="edgeStyle=orthogonalEdgeStyle;rounded=0;orthogonalLoop=1;jettySize=auto;html=1;endArrow=none;endFill=0;" edge="1" parent="WIyWlLk6GJQsqaUBKTNV-1" source="wI4dhS7EkpP3msXCNBsh-52">
          <mxGeometry relative="1" as="geometry">
            <mxPoint x="520" y="1095" as="targetPoint" />
          </mxGeometry>
        </mxCell>
        <mxCell id="wI4dhS7EkpP3msXCNBsh-48" value="Включить режим администратора" style="rounded=1;whiteSpace=wrap;html=1;absoluteArcSize=1;arcSize=14;strokeWidth=2;" vertex="1" parent="WIyWlLk6GJQsqaUBKTNV-1">
          <mxGeometry x="190" y="1070" width="120" height="50" as="geometry" />
        </mxCell>
        <mxCell id="wI4dhS7EkpP3msXCNBsh-51" value="Admin" style="text;html=1;align=center;verticalAlign=middle;resizable=0;points=[];autosize=1;strokeColor=none;fillColor=none;" vertex="1" parent="WIyWlLk6GJQsqaUBKTNV-1">
          <mxGeometry x="125" y="1070" width="60" height="30" as="geometry" />
        </mxCell>
        <mxCell id="wI4dhS7EkpP3msXCNBsh-53" value="" style="edgeStyle=orthogonalEdgeStyle;rounded=0;orthogonalLoop=1;jettySize=auto;html=1;endArrow=none;endFill=0;" edge="1" parent="WIyWlLk6GJQsqaUBKTNV-1" source="wI4dhS7EkpP3msXCNBsh-48" target="wI4dhS7EkpP3msXCNBsh-52">
          <mxGeometry relative="1" as="geometry">
            <mxPoint x="520" y="1095" as="targetPoint" />
            <mxPoint x="310" y="1095" as="sourcePoint" />
          </mxGeometry>
        </mxCell>
        <mxCell id="wI4dhS7EkpP3msXCNBsh-52" value="Отобразить главный экран" style="rounded=1;whiteSpace=wrap;html=1;absoluteArcSize=1;arcSize=14;strokeWidth=2;" vertex="1" parent="WIyWlLk6GJQsqaUBKTNV-1">
          <mxGeometry x="360" y="1070" width="120" height="50" as="geometry" />
        </mxCell>
      </root>
    </mxGraphModel>
  </diagram>
</mxfile>
